PathFileType	4	(X/Y/Z)	Patient4_TMGait_0pt7_01_left_28.trc.trc
DataRate	CameraRate	NumFrames	NumMarkers	Units	OrigDataRate	OrigDataStartFrame	OrigNumFrames
85.889570552147	85.889570552147	5	33	mm	85.889570552147	53	       141
Frame#	Time	Sacral			L.Shoulder			Chest			R.Shoulder			Neck			R.ASIS			L.ASIS			R.Thigh.Superior			R.Thigh.Lateral			R.Thigh.Inferior			R.Patella			L.Thigh.Superior			L.Thigh.Lateral			L.Thigh.Inferior			L.Patella			L.Shank.Superior			L.Shank.Lateral			L.Shank.Inferior			R.Shank.Superior			R.Shank.Lateral			R.Shank.Inferior			R.Heel			R.Midfoot.Superior			R.Midfoot.Lateral			R.Toe			L.Heel			L.Midfoot.Lateral			L.Midfoot.Superior			L.Toe			L.Elbow			L.Wrist			R.Elbow			R.Wrist			
		X1	Y1	Z1	X2	Y2	Z2	X3	Y3	Z3	X4	Y4	Z4	X5	Y5	Z5	X6	Y6	Z6	X7	Y7	Z7	X8	Y8	Z8	X9	Y9	Z9	X10	Y10	Z10	X11	Y11	Z11	X12	Y12	Z12	X13	Y13	Z13	X14	Y14	Z14	X15	Y15	Z15	X16	Y16	Z16	X17	Y17	Z17	X18	Y18	Z18	X19	Y19	Z19	X20	Y20	Z20	X21	Y21	Z21	X22	Y22	Z22	X23	Y23	Z23	X24	Y24	Z24	X25	Y25	Z25	X26	Y26	Z26	X27	Y27	Z27	X28	Y28	Z28	X29	Y29	Z29	X30	Y30	Z30	X31	Y31	Z31	X32	Y32	Z32	X33	Y33	Z33	

53	32.865428571429	773.377434276677	1012.994530694533	444.925409481340	990.883209936668	1434.403162150577	278.033277070314	1074.912638069069	1357.367683659467	448.235696044948	980.372979311724	1441.562324686759	611.509414954891	987.194135702120	1495.003007158867	432.575078718083	987.670705183214	949.472704544825	582.731471715955	1003.273823330279	961.373027232009	307.969584625605	1079.172119435239	788.643664341762	559.271379934454	1043.960319527687	667.479469054132	633.244419500143	1139.366395166536	632.138402469847	558.376167639815	1164.074498946624	519.375765981048	584.136919917755	1047.210377048255	752.149611373130	345.986458055883	962.066653838215	636.500551486059	281.948644924364	1037.678507705681	558.652780688641	355.383933759312	1035.956269615357	488.674704308438	365.892759351029	1007.078793125123	417.124871004458	354.281412700781	918.217002839242	305.076780299947	298.481694198424	960.539363563191	192.728853897730	373.037135291631	1087.995419729557	442.238236685402	588.948554550792	962.721893464735	401.325196203627	639.987037357919	955.769226309842	290.372376520041	594.323283801202	762.309497344380	231.461861466919	549.504816971480	921.067366785429	163.353029397635	609.195049235527	809.042604953333	170.105647355881	629.939167461608	974.196428499418	47.028475393495	644.110680702793	827.340762412769	38.324105910037	407.606062646889	904.047888647243	36.130429432054	329.043688305194	986.496179305852	96.102231558678	360.177004508627	1116.118276209062	41.847504113720	334.797316346722	977.481954510440	1092.188074455125	141.890569471967	1147.758204663543	893.884896706788	164.264548901563	923.510634468389	1100.819616637123	734.377342260536	1139.716317335772	967.557809021807	704.171742024924	
54	32.877071428571	772.684954487127	1013.347798073219	443.593687594101	992.626857874425	1434.397400241265	277.558818119952	1075.066605062563	1357.326726472252	448.503345469068	979.431053207029	1441.736847566918	611.054393078598	987.771860964298	1495.154000856039	432.005436110426	986.539884211692	950.379979819034	582.938539566206	1003.873347716263	961.681898228071	307.873523493854	1080.168166712764	792.620545690387	558.947055569707	1047.706227442708	670.953548940117	633.415731912851	1143.401250431110	637.213098632485	558.340851092546	1170.856706689648	525.712636344917	584.538359734152	1044.921704631241	751.003319911229	346.097243959471	958.485624018374	636.377840286328	281.639408203859	1032.801147880279	557.618869489327	355.279597558562	1030.155724092160	487.783475397778	365.818515865415	1001.010644963424	416.560408993295	354.124806893901	911.555556970851	305.001876646840	298.314538993735	953.106263233953	192.461319284226	372.985632387136	1098.008173217473	446.095486529068	589.784577349248	975.000183685431	399.406823664198	641.200114223078	973.290373732944	288.050315443783	595.832571375243	782.588980307174	218.876425297523	551.587627341976	945.238812394483	160.332213164536	611.732929744310	832.842729259980	160.730410438549	632.276973634047	1004.666279154024	47.223730123195	646.956144123919	819.149539046364	38.382720814545	407.596636710124	895.876428638498	36.142277579423	329.048953712448	978.361684804549	96.044593332121	360.179948762153	1107.965060514641	41.674775771059	334.753652728574	983.431412500846	1092.599444982425	140.723892691017	1163.739777756362	904.100346458079	165.895460500779	916.258538282930	1101.205311213208	732.467282235119	1121.989765179319	948.744472165418	710.654274961707	
55	32.888714285714	772.063901921802	1013.664908933522	442.341052798481	994.466210076197	1434.374978074923	277.235539146870	1075.299682193247	1357.228413592757	448.891383511058	978.554555177640	1441.827787136673	610.715664185189	988.392562107929	1495.262317086916	431.584120625556	985.447151637009	951.211575540132	583.267930585460	1004.453953171414	961.894500024415	307.896069852704	1080.855033048017	796.182997738708	558.943801067035	1050.640069684358	674.010412716370	633.692294581499	1146.645789137958	641.699325517664	558.596532017803	1176.548370018083	531.699984047325	585.139873805997	1042.534916387795	749.836547118080	346.377982069157	954.890434179178	636.257634413806	281.360619353943	1027.848055452457	556.578945136340	355.217423540181	1024.254856006365	486.894232835909	365.753686305114	994.873611744141	416.000188175924	353.983582610229	904.847888864814	304.925049239900	298.160063074516	945.648127460660	192.202955550101	372.939392697516	1107.376383848572	449.663462421998	590.787613635546	987.283093151261	396.795120889061	642.790235029208	991.276005055153	285.294104715034	597.674873659505	804.227341890704	205.268779422704	554.248938424191	970.482152247056	156.984683735623	614.576766414439	858.100892686304	150.673807745950	635.052703369602	1036.425910908787	47.607721646583	649.984222730895	810.968230631631	38.453998138923	407.583427641529	887.703865173261	36.154049458791	329.062874766668	970.227258515663	95.987664178060	360.184893149359	1099.809378769810	41.514122082283	334.710885470859	989.141481325553	1093.053815145460	139.811119178706	1178.888831501191	914.935362638902	167.775577383781	909.694723312758	1101.513282569227	730.698015209935	1102.972112126553	931.012146037258	716.831325350991	
56	32.900357142857	771.546780336797	1013.934566247646	441.192591838286	996.368459143248	1434.342366161573	277.076331474850	1075.610477449705	1357.066468263138	449.395663634516	977.762886892784	1441.818173040301	610.502477148477	989.056968103659	1495.321596685445	431.329642423178	984.415468448502	951.946656243247	583.690031543195	1004.975006072776	961.990177300748	308.036063172107	1081.235326915929	799.242084631333	559.227392650883	1052.712450998490	676.550576494547	634.059727532572	1149.047866604260	645.474923062439	559.121533009405	1181.084812320695	537.209182169456	585.890113744219	1040.085827957582	748.655134058743	346.819039421738	951.301035293452	636.138236268586	281.113161926033	1022.838848630873	555.532502978372	355.193901258687	1018.274604706378	486.007675183216	365.701563454862	988.687629435422	415.438991810961	353.864396664282	898.110765043151	304.846350967222	298.022967049250	938.167878159114	191.950311233990	372.907349719799	1116.015389229610	452.898251142399	591.909828988891	999.574498751411	393.569082904463	644.766343671073	1009.632026801889	282.265359263321	599.818491349813	827.214918511225	190.998200073840	557.557447691380	996.649237981106	153.534842919093	617.611887080241	884.780777977559	140.264483270418	638.263929374431	1069.231300398383	48.456287563206	652.984715631431	802.797196733156	38.537780001847	407.563756219242	879.529587953832	36.166369597955	329.085721938715	962.093542131547	95.933304428791	360.193488321985	1091.648913430686	41.365949431907	334.670975473427	994.624845344003	1093.554053022053	139.140975592110	1193.151942542738	926.318804112732	169.881043029039	903.764255401490	1101.738383329440	729.136655550218	1082.789187787476	914.598850294160	722.635079676880	
57	32.912000000000	771.165386189384	1014.143533511591	440.171946182976	998.296517958373	1434.300504653726	277.090342532599	1075.995523271989	1356.834097599158	450.009833770892	977.079170671839	1441.693990537810	610.425818092904	989.764669105080	1495.323426767522	431.255109348440	983.473078112310	952.563803324852	584.179978947070	1005.420013211647	961.959445654955	308.287083414601	1081.312685038876	801.709416816374	559.758291088136	1053.890615953206	678.488520836750	634.512820737966	1150.563318757329	648.428903421813	559.889336407086	1184.427803430544	542.122716104523	586.738397253418	1037.615963605308	747.460830273755	347.400407648415	947.731512294008	636.016825368661	280.895877720438	1017.787797019087	554.477587825461	355.201453523161	1012.232144977189	485.124565125912	365.660596810850	982.468453457850	414.873244537824	353.769655275016	891.357293694057	304.765343479753	297.905392767020	930.668884837874	191.701063076506	372.894820048000	1123.851540206682	455.763188998803	593.107992678799	1011.858034400299	389.826961186167	647.120123387950	1028.239409912068	279.132744745453	602.220707707654	851.493107562966	176.430402245588	561.531561174634	1023.562234601327	150.223923414474	620.735501255286	912.790099022146	129.840514667604	641.881693465284	1102.806238033634	50.043126759425	655.770976951190	794.635046842353	38.632541503370	407.536253977939	871.352964947485	36.179372575513	329.117386696994	953.961058610715	95.883424222313	360.206185340840	1083.481321507969	41.230039093786	334.635968669798	999.893982554005	1094.100763537934	138.695810451721	1206.486472193678	938.170884617178	172.188181075379	898.382273591201	1101.893384864011	727.834683182296	1061.605678268586	899.706330822556	728.020054234380	
